<?xml version="1.0" encoding="UTF-8" standalone="no"?>
<!-- Created with Inkscape (http://www.inkscape.org/) -->
<svg
   xmlns:dc="http://purl.org/dc/elements/1.1/"
   xmlns:cc="http://creativecommons.org/ns#"
   xmlns:rdf="http://www.w3.org/1999/02/22-rdf-syntax-ns#"
   xmlns:svg="http://www.w3.org/2000/svg"
   xmlns="http://www.w3.org/2000/svg"
   xmlns:sodipodi="http://sodipodi.sourceforge.net/DTD/sodipodi-0.dtd"
   xmlns:inkscape="http://www.inkscape.org/namespaces/inkscape"
   width="870"
   height="295"
   id="svg2"
   sodipodi:version="0.32"
   inkscape:version="0.46"
   version="1.0"
   sodipodi:docname="mixer3.svg"
   inkscape:output_extension="org.inkscape.output.svg.inkscape">
  <defs
     id="defs4">
    <inkscape:perspective
       sodipodi:type="inkscape:persp3d"
       inkscape:vp_x="0 : 526.18109 : 1"
       inkscape:vp_y="0 : 1000 : 0"
       inkscape:vp_z="744.09448 : 526.18109 : 1"
       inkscape:persp3d-origin="372.04724 : 350.78739 : 1"
       id="perspective10" />
    <inkscape:perspective
       id="perspective2410"
       inkscape:persp3d-origin="372.04724 : 350.78739 : 1"
       inkscape:vp_z="744.09448 : 526.18109 : 1"
       inkscape:vp_y="0 : 1000 : 0"
       inkscape:vp_x="0 : 526.18109 : 1"
       sodipodi:type="inkscape:persp3d" />
  </defs>
  <sodipodi:namedview
     id="base"
     pagecolor="#ffffff"
     bordercolor="#666666"
     borderopacity="1.0"
     gridtolerance="10000"
     guidetolerance="10"
     objecttolerance="10"
     inkscape:pageopacity="0.0"
     inkscape:pageshadow="2"
     inkscape:zoom="0.82000848"
     inkscape:cx="420.08011"
     inkscape:cy="-32.902998"
     inkscape:document-units="px"
     inkscape:current-layer="layer1"
     showgrid="false"
     inkscape:window-width="1042"
     inkscape:window-height="892"
     inkscape:window-x="146"
     inkscape:window-y="127" />
  <metadata
     id="metadata7">
    <rdf:RDF>
      <cc:Work
         rdf:about="">
        <dc:format>image/svg+xml</dc:format>
        <dc:type
           rdf:resource="http://purl.org/dc/dcmitype/StillImage" />
      </cc:Work>
    </rdf:RDF>
  </metadata>
  <g
     inkscape:label="Layer 1"
     inkscape:groupmode="layer"
     id="layer1"
     transform="translate(40.005601,-16.95996)">
    <g
       id="g2750"
       transform="translate(9.7559967,10.975496)">
      <path
         d="M -9.597451,287.31021 L 510.45755,287.31021 L 510.45755,107.36771 L -9.597451,107.36771 L -9.597451,287.31021 z"
         style="fill:#d4ffff;fill-opacity:1;fill-rule:nonzero;stroke:none"
         id="path2416" />
      <path
         d="M -9.597451,287.31021 L 510.45755,287.31021 L 510.45755,107.36771 L -9.597451,107.36771 L -9.597451,287.31021 z"
         style="fill:none;stroke:#000000;stroke-width:0.90841502;stroke-linecap:round;stroke-linejoin:round;stroke-miterlimit:10;stroke-dasharray:1.816825, 0.908415;stroke-dashoffset:0;stroke-opacity:1"
         id="path2418" />
      <path
         d="M -19.542826,257.25271 L 500.51217,257.25271 L 500.51217,77.31021 L -19.542826,77.31021 L -19.542826,257.25271 z"
         style="fill:#c9ffff;fill-opacity:1;fill-rule:nonzero;stroke:none"
         id="path2420" />
      <path
         d="M -19.542826,257.25271 L 500.51217,257.25271 L 500.51217,77.31021 L -19.542826,77.31021 L -19.542826,257.25271 z"
         style="fill:none;stroke:#000000;stroke-width:0.90841502;stroke-linecap:round;stroke-linejoin:round;stroke-miterlimit:10;stroke-dasharray:1.816825, 0.908415;stroke-dashoffset:0;stroke-opacity:1"
         id="path2422" />
      <path
         d="M -30.005701,227.31021 L 490.04805,227.31021 L 490.04805,47.36771 L -30.005701,47.36771 L -30.005701,227.31021 z"
         style="fill:#c3ffff;fill-opacity:1;fill-rule:nonzero;stroke:none"
         id="path2424" />
      <path
         d="M -30.005701,227.31021 L 490.04805,227.31021 L 490.04805,47.36771 L -30.005701,47.36771 L -30.005701,227.31021 z"
         style="fill:none;stroke:#000000;stroke-width:0.90841502;stroke-linecap:round;stroke-linejoin:round;stroke-miterlimit:10;stroke-dasharray:1.816825, 0.908415;stroke-dashoffset:0;stroke-opacity:1"
         id="path2426" />
      <path
         d="M -39.551601,197.35646 L 480.5034,197.35646 L 480.5034,17.41396 L -39.551601,17.41396 L -39.551601,197.35646 z"
         style="fill:#a4ffff;fill-opacity:1;fill-rule:nonzero;stroke:none"
         id="path2428" />
      <path
         d="M -39.551601,197.35646 L 480.5034,197.35646 L 480.5034,17.41396 L -39.551601,17.41396 L -39.551601,197.35646 z"
         style="fill:none;stroke:#000000;stroke-width:0.90799999;stroke-linecap:round;stroke-linejoin:round;stroke-miterlimit:10;stroke-dasharray:1.816, 0.908;stroke-dashoffset:0;stroke-opacity:1"
         id="path2430" />
      <path
         d="M -29.438326,182.13646 L 90.457174,182.13646 L 90.457174,102.31083 L -29.438326,102.31083 L -29.438326,182.13646 z"
         style="fill:none;stroke:#000000;stroke-width:2.57408738;stroke-linecap:round;stroke-linejoin:round;stroke-miterlimit:10;stroke-dasharray:none;stroke-opacity:1"
         id="path2432" />
      <path
         d="M 130.45667,102.31021 L 190.45667,102.31021 L 210.45667,142.31021 L 190.45667,182.31021 L 130.45667,182.31021 L 130.45667,102.31021 z"
         style="fill:none;stroke:#000000;stroke-width:3;stroke-linecap:round;stroke-linejoin:miter;stroke-miterlimit:10;stroke-dasharray:none;stroke-opacity:1"
         id="path2434" />
      <path
         d="M 250.45667,47.31021 L 310.45667,47.31021 L 350.45667,107.31021 L 310.45667,167.31021 L 250.45667,167.31021 L 250.45667,47.31021 z"
         style="fill:none;stroke:#000000;stroke-width:3;stroke-linecap:round;stroke-linejoin:miter;stroke-miterlimit:10;stroke-dasharray:none;stroke-opacity:1"
         id="path2436" />
      <path
         d="M 470.45667,105.57771 C 470.45667,133.17771 448.05667,155.57771 420.45667,155.57771 C 392.85667,155.57771 370.45667,133.17771 370.45667,105.57771 C 370.45667,77.97771 392.85667,55.57771 420.45667,55.57771 C 448.05667,55.57771 470.45667,77.97771 470.45667,105.57771 z"
         style="fill:none;stroke:#000000;stroke-width:3;stroke-linecap:round;stroke-linejoin:round;stroke-miterlimit:10;stroke-dasharray:none;stroke-opacity:1"
         id="path2438" />
      <path
         d="M 690.45667,192.31021 C 690.45667,230.95021 659.09792,262.31021 620.45667,262.31021 C 581.81667,262.31021 550.45667,230.95021 550.45667,192.31021 C 550.45667,153.67021 581.81667,122.31021 620.45667,122.31021 C 659.09792,122.31021 690.45667,153.67021 690.45667,192.31021 z"
         style="fill:none;stroke:#000000;stroke-width:3;stroke-linecap:round;stroke-linejoin:round;stroke-miterlimit:10;stroke-dasharray:none;stroke-opacity:1"
         id="path2440" />
      <path
         d="M 5.802924,132.14646 L 2.591924,140.85271 L 9.025549,140.85271 L 5.802924,132.14646 M 4.466924,129.81396 L 7.150549,129.81396 L 13.818549,147.31021 L 11.357549,147.31021 L 9.763799,142.82146 L 1.877049,142.82146 L 0.283299,147.31021 L -2.212701,147.31021 L 4.466924,129.81396"
         style="fill:#000000;fill-opacity:1;fill-rule:nonzero;stroke:none"
         id="path2442" />
      <path
         d="M 18.728674,131.75896 L 18.728674,145.36521 L 21.588049,145.36521 C 24.002049,145.36521 25.767674,144.81771 26.884924,143.72396 C 28.009924,142.63021 28.572424,140.90396 28.572424,138.54521 C 28.572424,136.20021 28.009924,134.48646 26.884924,133.40021 C 25.767674,132.30646 24.002049,131.75896 21.588049,131.75896 L 18.728674,131.75896 M 16.361424,129.81396 L 21.224799,129.81396 C 24.615424,129.81396 27.103674,130.52146 28.689549,131.93521 C 30.275549,133.34146 31.068549,135.54521 31.068549,138.54521 C 31.068549,141.56021 30.271674,143.77521 28.677924,145.18896 C 27.084174,146.60271 24.599799,147.31021 21.224799,147.31021 L 16.361424,147.31021 L 16.361424,129.81396"
         style="fill:#000000;fill-opacity:1;fill-rule:nonzero;stroke:none"
         id="path2444" />
      <path
         d="M 47.931799,131.16146 L 47.931799,133.65771 C 47.134924,132.91521 46.283299,132.36146 45.377049,131.99396 C 44.478674,131.62646 43.521674,131.44271 42.506049,131.44271 C 40.506049,131.44271 38.974799,132.05646 37.912299,133.28271 C 36.849799,134.50146 36.318549,136.26771 36.318549,138.58021 C 36.318549,140.88396 36.849799,142.65021 37.912299,143.87646 C 38.974799,145.09521 40.506049,145.70521 42.506049,145.70521 C 43.521674,145.70521 44.478674,145.52146 45.377049,145.15396 C 46.283299,144.78646 47.134924,144.23271 47.931799,143.49021 L 47.931799,145.96271 C 47.103674,146.52521 46.224799,146.94646 45.295049,147.22771 C 44.373174,147.50896 43.396674,147.65021 42.365424,147.65021 C 39.716924,147.65021 37.631049,146.84146 36.107549,145.22396 C 34.584174,143.59896 33.822424,141.38396 33.822424,138.58021 C 33.822424,135.76771 34.584174,133.55271 36.107549,131.93521 C 37.631049,130.31021 39.716924,129.49771 42.365424,129.49771 C 43.412299,129.49771 44.396674,129.63771 45.318549,129.92021 C 46.248174,130.19271 47.119299,130.60771 47.931799,131.16146"
         style="fill:#000000;fill-opacity:1;fill-rule:nonzero;stroke:none"
         id="path2446" />
      <path
         d="M 52.341924,146.37271 L 54.138799,146.37271 L 54.138799,157.31021 L 52.341924,157.31021 L 52.341924,146.37271 M 52.341924,142.11521 L 54.138799,142.11521 L 54.138799,144.39021 L 52.341924,144.39021 L 52.341924,142.11521"
         style="fill:#000000;fill-opacity:1;fill-rule:nonzero;stroke:none"
         id="path2448" />
      <path
         d="M 58.123174,148.22771 L 70.642674,148.22771 L 70.642674,149.86896 L 58.123174,149.86896 L 58.123174,148.22771 M 58.123174,152.21271 L 70.642674,152.21271 L 70.642674,153.87271 L 58.123174,153.87271 L 58.123174,152.21271"
         style="fill:#000000;fill-opacity:1;fill-rule:nonzero;stroke:none"
         id="path2450" />
      <path
         d="M 79.119174,144.02896 C 78.104174,144.02896 77.337924,144.53021 76.824174,145.53271 C 76.316674,146.52896 76.062924,148.02896 76.062924,150.03521 C 76.062924,152.03396 76.316674,153.53396 76.824174,154.53646 C 77.337924,155.53271 78.104174,156.03146 79.119174,156.03146 C 80.141674,156.03146 80.906674,155.53271 81.414174,154.53646 C 81.927924,153.53396 82.185424,152.03396 82.185424,150.03521 C 82.185424,148.02896 81.927924,146.52896 81.414174,145.53271 C 80.906674,144.53021 80.141674,144.02896 79.119174,144.02896 M 79.119174,142.46646 C 80.752924,142.46646 82.000424,143.11396 82.859174,144.41021 C 83.725424,145.69896 84.157924,147.57396 84.157924,150.03521 C 84.157924,152.48896 83.725424,154.36396 82.859174,155.66021 C 82.000424,156.94896 80.752924,157.59396 79.119174,157.59396 C 77.485424,157.59396 76.235424,156.94896 75.369299,155.66021 C 74.509924,154.36396 74.080174,152.48896 74.080174,150.03521 C 74.080174,147.57396 74.509924,145.69896 75.369299,144.41021 C 76.235424,143.11396 77.485424,142.46646 79.119174,142.46646"
         style="fill:#000000;fill-opacity:1;fill-rule:nonzero;stroke:none"
         id="path2452" />
      <path
         d="M 140.38667,129.81396 L 155.18792,129.81396 L 155.18792,131.80646 L 148.97667,131.80646 L 148.97667,147.31021 L 146.59792,147.31021 L 146.59792,131.80646 L 140.38667,131.80646 L 140.38667,129.81396"
         style="fill:#000000;fill-opacity:1;fill-rule:nonzero;stroke:none"
         id="path2454" />
      <path
         d="M 165.78167,139.10771 C 166.28917,139.27896 166.78167,139.64646 167.25792,140.20896 C 167.74292,140.77146 168.22667,141.54521 168.71167,142.52896 L 171.11292,147.31021 L 168.57042,147.31021 L 166.33167,142.82146 C 165.75417,141.65021 165.19167,140.87271 164.64417,140.49021 C 164.10542,140.10771 163.36792,139.91521 162.43042,139.91521 L 159.85167,139.91521 L 159.85167,147.31021 L 157.48417,147.31021 L 157.48417,129.81396 L 162.82792,129.81396 C 164.82792,129.81396 166.32042,130.23271 167.30542,131.06771 C 168.28917,131.90396 168.78167,133.16521 168.78167,134.85271 C 168.78167,135.95521 168.52417,136.86896 168.00792,137.59521 C 167.50042,138.32146 166.75792,138.82521 165.78167,139.10771 M 159.85167,131.75896 L 159.85167,137.97021 L 162.82792,137.97021 C 163.96917,137.97021 164.82792,137.70896 165.40667,137.18521 C 165.99292,136.65396 166.28542,135.87646 166.28542,134.85271 C 166.28542,133.83021 165.99292,133.06021 165.40667,132.54521 C 164.82792,132.02146 163.96917,131.75896 162.82792,131.75896 L 159.85167,131.75896"
         style="fill:#000000;fill-opacity:1;fill-rule:nonzero;stroke:none"
         id="path2456" />
      <path
         d="M 68.300924,30.38771 L 68.300924,32.69646 C 67.402549,32.26771 66.554799,31.94646 65.757924,31.73646 C 64.961049,31.52521 64.191549,31.42021 63.449424,31.42021 C 62.160299,31.42021 61.164174,31.67021 60.461049,32.17021 C 59.765799,32.67021 59.418174,33.38021 59.418174,34.30271 C 59.418174,35.07521 59.648549,35.66146 60.109549,36.06021 C 60.578299,36.45021 61.461049,36.76771 62.757924,37.00896 L 64.187674,37.30271 C 65.953299,37.63771 67.254049,38.23271 68.090049,39.08396 C 68.933799,39.92771 69.355674,41.06021 69.355674,42.48271 C 69.355674,44.17771 68.785299,45.46271 67.644674,46.33771 C 66.511924,47.21271 64.847799,47.65021 62.652549,47.65021 C 61.824424,47.65021 60.941549,47.55646 60.004049,47.36896 C 59.074424,47.18146 58.109549,46.90396 57.109549,46.53646 L 57.109549,44.09896 C 58.070424,44.63771 59.011924,45.04521 59.933799,45.31771 C 60.855674,45.59146 61.761924,45.72771 62.652549,45.72771 C 64.004049,45.72771 65.047049,45.46271 65.781424,44.93146 C 66.515799,44.40021 66.882924,43.64271 66.882924,42.65771 C 66.882924,41.79896 66.617299,41.12646 66.086049,40.64271 C 65.562674,40.15771 64.699424,39.79521 63.496299,39.55271 L 62.054799,39.27146 C 60.289174,38.92021 59.011924,38.36896 58.222799,37.61896 C 57.433799,36.86896 57.039174,35.82521 57.039174,34.49021 C 57.039174,32.94271 57.582174,31.72396 58.668174,30.83396 C 59.761924,29.94271 61.265799,29.49771 63.179799,29.49771 C 64.000174,29.49771 64.836049,29.57146 65.687674,29.72021 C 66.539174,29.86896 67.410299,30.09146 68.300924,30.38771"
         style="fill:#000000;fill-opacity:1;fill-rule:nonzero;stroke:none"
         id="path2458" />
      <path
         d="M 84.180424,40.20896 L 84.180424,41.26271 L 74.265799,41.26271 C 74.359549,42.74771 74.804799,43.88021 75.601674,44.66146 C 76.406674,45.43521 77.524174,45.82146 78.952924,45.82146 C 79.781674,45.82146 80.581674,45.72021 81.355424,45.51771 C 82.136674,45.31396 82.910424,45.00896 83.675424,44.60271 L 83.675424,46.64271 C 82.902924,46.97021 82.109174,47.22021 81.296674,47.39271 C 80.484174,47.56396 79.660424,47.65021 78.824174,47.65021 C 76.730424,47.65021 75.070424,47.04021 73.843924,45.82146 C 72.625174,44.60271 72.015799,42.95521 72.015799,40.87646 C 72.015799,38.72771 72.593924,37.02521 73.750174,35.76771 C 74.914174,34.50146 76.480424,33.86896 78.449174,33.86896 C 80.215424,33.86896 81.609174,34.43896 82.632924,35.58021 C 83.664174,36.71271 84.180424,38.25521 84.180424,40.20896 M 82.024174,39.57521 C 82.007924,38.39646 81.675424,37.45521 81.027924,36.75146 C 80.386674,36.04896 79.535424,35.69646 78.472924,35.69646 C 77.269174,35.69646 76.305424,36.03646 75.577924,36.71646 C 74.859549,37.39646 74.445424,38.35271 74.336049,39.58771 L 82.024174,39.57521"
         style="fill:#000000;fill-opacity:1;fill-rule:nonzero;stroke:none"
         id="path2460" />
      <path
         d="M 89.851674,30.45896 L 89.851674,34.18521 L 94.292924,34.18521 L 94.292924,35.86146 L 89.851674,35.86146 L 89.851674,42.98646 C 89.851674,44.05646 89.996674,44.74396 90.285424,45.04896 C 90.581674,45.35271 91.180424,45.50521 92.077924,45.50521 L 94.292924,45.50521 L 94.292924,47.31021 L 92.077924,47.31021 C 90.414174,47.31021 89.265424,47.00146 88.632924,46.38396 C 88.000424,45.75896 87.684174,44.62646 87.684174,42.98646 L 87.684174,35.86146 L 86.101674,35.86146 L 86.101674,34.18521 L 87.684174,34.18521 L 87.684174,30.45896 L 89.851674,30.45896"
         style="fill:#000000;fill-opacity:1;fill-rule:nonzero;stroke:none"
         id="path2462" />
      <path
         d="M 107.24292,31.75896 L 107.24292,38.33396 L 110.21917,38.33396 C 111.32042,38.33396 112.17167,38.04896 112.77417,37.47771 C 113.37542,36.90771 113.67542,36.09521 113.67542,35.04021 C 113.67542,33.99396 113.37542,33.18521 112.77417,32.61521 C 112.17167,32.04521 111.32042,31.75896 110.21917,31.75896 L 107.24292,31.75896 M 104.87542,29.81396 L 110.21917,29.81396 C 112.18042,29.81396 113.66042,30.25896 114.66042,31.15021 C 115.66792,32.03271 116.17167,33.33021 116.17167,35.04021 C 116.17167,36.76771 115.66792,38.07146 114.66042,38.95521 C 113.66042,39.83771 112.18042,40.27896 110.21917,40.27896 L 107.24292,40.27896 L 107.24292,47.31021 L 104.87542,47.31021 L 104.87542,29.81396"
         style="fill:#000000;fill-opacity:1;fill-rule:nonzero;stroke:none"
         id="path2464" />
      <path
         d="M 123.50792,35.69646 C 122.35167,35.69646 121.43792,36.15021 120.76542,37.05646 C 120.09417,37.95521 119.75792,39.18896 119.75792,40.75896 C 119.75792,42.33021 120.09042,43.56771 120.75417,44.47396 C 121.42542,45.37271 122.34417,45.82146 123.50792,45.82146 C 124.65667,45.82146 125.56667,45.36896 126.23792,44.46271 C 126.91042,43.55646 127.24667,42.32146 127.24667,40.75896 C 127.24667,39.20521 126.91042,37.97396 126.23792,37.06771 C 125.56667,36.15396 124.65667,35.69646 123.50792,35.69646 M 123.50792,33.86896 C 125.38292,33.86896 126.85542,34.47771 127.92542,35.69646 C 128.99667,36.91521 129.53167,38.60271 129.53167,40.75896 C 129.53167,42.90771 128.99667,44.59521 127.92542,45.82146 C 126.85542,47.04021 125.38292,47.65021 123.50792,47.65021 C 121.62542,47.65021 120.14917,47.04021 119.07792,45.82146 C 118.01542,44.59521 117.48417,42.90771 117.48417,40.75896 C 117.48417,38.60271 118.01542,36.91521 119.07792,35.69646 C 120.14917,34.47771 121.62542,33.86896 123.50792,33.86896"
         style="fill:#000000;fill-opacity:1;fill-rule:nonzero;stroke:none"
         id="path2466" />
      <path
         d="M 133.09417,34.18521 L 135.25042,34.18521 L 135.25042,47.31021 L 133.09417,47.31021 L 133.09417,34.18521 M 133.09417,29.07521 L 135.25042,29.07521 L 135.25042,31.80646 L 133.09417,31.80646 L 133.09417,29.07521"
         style="fill:#000000;fill-opacity:1;fill-rule:nonzero;stroke:none"
         id="path2468" />
      <path
         d="M 150.66042,39.38771 L 150.66042,47.31021 L 148.50417,47.31021 L 148.50417,39.45896 C 148.50417,38.21646 148.26167,37.28646 147.77792,36.67021 C 147.29292,36.05271 146.56667,35.74396 145.59792,35.74396 C 144.43417,35.74396 143.51542,36.11521 142.84417,36.85771 C 142.17167,37.59896 141.83667,38.61146 141.83667,39.89271 L 141.83667,47.31021 L 139.66792,47.31021 L 139.66792,34.18521 L 141.83667,34.18521 L 141.83667,36.22396 C 142.35167,35.43521 142.95667,34.84521 143.65292,34.45521 C 144.35542,34.06396 145.16417,33.86896 146.07792,33.86896 C 147.58667,33.86896 148.72667,34.33771 149.50042,35.27521 C 150.27417,36.20521 150.66042,37.57521 150.66042,39.38771"
         style="fill:#000000;fill-opacity:1;fill-rule:nonzero;stroke:none"
         id="path2470" />
      <path
         d="M 157.11792,30.45896 L 157.11792,34.18521 L 161.55917,34.18521 L 161.55917,35.86146 L 157.11792,35.86146 L 157.11792,42.98646 C 157.11792,44.05646 157.26167,44.74396 157.55042,45.04896 C 157.84792,45.35271 158.44542,45.50521 159.34417,45.50521 L 161.55917,45.50521 L 161.55917,47.31021 L 159.34417,47.31021 C 157.68042,47.31021 156.53167,47.00146 155.89917,46.38396 C 155.26542,45.75896 154.94917,44.62646 154.94917,42.98646 L 154.94917,35.86146 L 153.36792,35.86146 L 153.36792,34.18521 L 154.94917,34.18521 L 154.94917,30.45896 L 157.11792,30.45896"
         style="fill:#000000;fill-opacity:1;fill-rule:nonzero;stroke:none"
         id="path2472" />
      <path
         d="M 177.34167,146.37271 L 179.13917,146.37271 L 179.13917,157.31021 L 177.34167,157.31021 L 177.34167,146.37271 M 177.34167,142.11521 L 179.13917,142.11521 L 179.13917,144.39021 L 177.34167,144.39021 L 177.34167,142.11521"
         style="fill:#000000;fill-opacity:1;fill-rule:nonzero;stroke:none"
         id="path2474" />
      <path
         d="M 167.34167,46.37271 L 169.13917,46.37271 L 169.13917,57.31021 L 167.34167,57.31021 L 167.34167,46.37271 M 167.34167,42.11521 L 169.13917,42.11521 L 169.13917,44.39021 L 167.34167,44.39021 L 167.34167,42.11521"
         style="fill:#000000;fill-opacity:1;fill-rule:nonzero;stroke:none"
         id="path2476" />
      <path
         d="M 273.85542,62.23271 L 273.85542,73.11146 L 284.73417,73.11146 L 284.73417,76.43146 L 273.85542,76.43146 L 273.85542,87.31021 L 270.57417,87.31021 L 270.57417,76.43146 L 259.69542,76.43146 L 259.69542,73.11146 L 270.57417,73.11146 L 270.57417,62.23271 L 273.85542,62.23271"
         style="fill:#000000;fill-opacity:1;fill-rule:nonzero;stroke:none"
         id="path2478" />
      <path
         d="M 260.06667,141.74396 L 280.84792,141.74396 L 280.84792,138.95098 L 260.06667,138.95098 L 260.06667,141.74396 z"
         style="fill:#000000;fill-opacity:1;fill-rule:nonzero;stroke:none"
         id="path2480" />
      <path
         d="M 90.456674,142.31021 L 130.45667,142.31021"
         style="fill:none;stroke:#000000;stroke-width:1.5;stroke-linecap:butt;stroke-linejoin:miter;stroke-miterlimit:10;stroke-dasharray:none;stroke-opacity:1"
         id="path2482" />
      <path
         d="M 210.45667,142.31021 L 250.45667,142.31021"
         style="fill:none;stroke:#000000;stroke-width:1.5;stroke-linecap:butt;stroke-linejoin:miter;stroke-miterlimit:10;stroke-dasharray:none;stroke-opacity:1"
         id="path2484" />
      <path
         d="M 175.45667,42.31021 L 210.45667,42.31021 L 210.45667,72.31021 L 250.45667,72.31021"
         style="fill:none;stroke:#000000;stroke-width:1.5;stroke-linecap:butt;stroke-linejoin:miter;stroke-miterlimit:10;stroke-dasharray:none;stroke-opacity:1"
         id="path2486" />
      <path
         d="M 412.43042,93.14896 L 400.80542,107.33896 L 413.03292,122.31021 L 406.80417,122.31021 L 397.44667,110.85396 L 388.08792,122.31021 L 381.85917,122.31021 L 394.34667,107.05271 L 382.92167,93.14896 L 389.15042,93.14896 L 397.67542,103.53771 L 406.20167,93.14896 L 412.43042,93.14896"
         style="fill:#000000;fill-opacity:1;fill-rule:nonzero;stroke:none"
         id="path2488" />
      <path
         d="M 447.34167,121.37271 L 449.13917,121.37271 L 449.13917,132.31021 L 447.34167,132.31021 L 447.34167,121.37271 M 447.34167,117.11521 L 449.13917,117.11521 L 449.13917,119.39021 L 447.34167,119.39021 L 447.34167,117.11521"
         style="fill:#000000;fill-opacity:1;fill-rule:nonzero;stroke:none"
         id="path2490" />
      <path
         d="M 439.74292,124.81396 L 439.74292,120.11521 L 435.87542,120.11521 L 435.87542,118.17021 L 442.08667,118.17021 L 442.08667,125.68146 C 441.17167,126.33021 440.16417,126.82146 439.06292,127.15771 C 437.96167,127.48646 436.78542,127.65021 435.53542,127.65021 C 432.80042,127.65021 430.66042,126.85271 429.11292,125.25896 C 427.57417,123.65771 426.80542,121.43146 426.80542,118.58021 C 426.80542,115.72021 427.57417,113.49396 429.11292,111.90021 C 430.66042,110.29896 432.80042,109.49771 435.53542,109.49771 C 436.67542,109.49771 437.75792,109.63771 438.78167,109.92021 C 439.81292,110.20021 440.76167,110.61521 441.62917,111.16146 L 441.62917,113.68146 C 440.75417,112.93896 439.82417,112.38021 438.84042,112.00521 C 437.85542,111.63021 436.82042,111.44271 435.73417,111.44271 C 433.59417,111.44271 431.98417,112.04021 430.90667,113.23646 C 429.83667,114.43146 429.30042,116.21271 429.30042,118.58021 C 429.30042,120.93896 429.83667,122.71646 430.90667,123.91146 C 431.98417,125.10771 433.59417,125.70521 435.73417,125.70521 C 436.57042,125.70521 437.31667,125.63396 437.97292,125.49396 C 438.62917,125.34521 439.21917,125.11896 439.74292,124.81396"
         style="fill:#000000;fill-opacity:1;fill-rule:nonzero;stroke:none"
         id="path2492" />
      <path
         d="M 210.45667,142.31021 L 250.45667,142.31021"
         style="fill:none;stroke:#000000;stroke-width:1.5;stroke-linecap:butt;stroke-linejoin:miter;stroke-miterlimit:10;stroke-dasharray:none;stroke-opacity:1"
         id="path2494" />
      <path
         d="M 350.45667,107.31021 L 370.45667,107.31021"
         style="fill:none;stroke:#000000;stroke-width:1.5;stroke-linecap:butt;stroke-linejoin:miter;stroke-miterlimit:10;stroke-dasharray:none;stroke-opacity:1"
         id="path2496" />
      <path
         d="M 470.45667,107.31021 L 515.45667,107.31021 L 560.45667,152.31021"
         style="fill:none;stroke:#000000;stroke-width:1.5;stroke-linecap:butt;stroke-linejoin:miter;stroke-miterlimit:10;stroke-dasharray:none;stroke-opacity:1"
         id="path2498" />
      <path
         d="M 553.82417,136.26521 L 561.88417,153.70021 L 544.44917,145.64021 C 549.25292,144.90896 553.02792,141.11146 553.82417,136.26521"
         style="fill:#000000;fill-opacity:1;fill-rule:evenodd;stroke:none"
         id="path2500" />
      <path
         d="M 606.59917,224.00896 L 642.24417,224.00896 L 642.24417,232.31021 L 595.27167,232.31021 L 595.27167,224.00896 L 618.66042,193.54021 L 595.27167,167.71021 L 595.27167,159.41021 L 641.36542,159.41021 L 641.36542,167.71021 L 606.59917,167.71021 L 629.98792,193.34521 L 606.59917,224.00896"
         style="fill:#000000;fill-opacity:1;fill-rule:nonzero;stroke:none"
         id="path2502" />
      <path
         d="M 490.45667,217.31021 L 550.45667,207.31021"
         style="fill:none;stroke:#000000;stroke-width:1.5;stroke-linecap:butt;stroke-linejoin:miter;stroke-miterlimit:10;stroke-dasharray:none;stroke-opacity:1"
         id="path2504" />
      <path
         d="M 533.54542,203.38146 L 552.41792,206.95646 L 535.72542,216.46021 C 537.92292,212.12521 537.02542,206.84646 533.54542,203.38146"
         style="fill:#000000;fill-opacity:1;fill-rule:evenodd;stroke:none"
         id="path2506" />
      <path
         d="M 510.45667,267.31021 L 560.45667,232.31021"
         style="fill:none;stroke:#000000;stroke-width:1.5;stroke-linecap:butt;stroke-linejoin:miter;stroke-miterlimit:10;stroke-dasharray:none;stroke-opacity:1"
         id="path2508" />
      <path
         d="M 543.50417,236.05396 L 562.07417,231.14646 L 551.10667,246.91521 C 551.22167,242.05771 548.13792,237.68021 543.50417,236.05396"
         style="fill:#000000;fill-opacity:1;fill-rule:evenodd;stroke:none"
         id="path2510" />
      <path
         d="M 490.45667,167.31021 L 550.45667,177.31021"
         style="fill:none;stroke:#000000;stroke-width:1.5;stroke-linecap:butt;stroke-linejoin:miter;stroke-miterlimit:10;stroke-dasharray:none;stroke-opacity:1"
         id="path2512" />
      <path
         d="M 535.73417,168.10896 L 552.42667,177.61146 L 533.55417,181.18771 C 537.03792,177.80021 537.90292,172.51521 535.73417,168.10896"
         style="fill:#000000;fill-opacity:1;fill-rule:evenodd;stroke:none"
         id="path2514" />
      <path
         d="M 690.45667,192.31021 L 720.45667,192.31021"
         style="fill:none;stroke:#000000;stroke-width:1.5;stroke-linecap:butt;stroke-linejoin:miter;stroke-miterlimit:10;stroke-dasharray:none;stroke-opacity:1"
         id="path2516" />
      <path
         d="M 704.42167,185.65396 L 722.44917,192.28396 L 704.42167,198.91271 C 707.30167,194.99896 707.28542,189.64396 704.42167,185.65396"
         style="fill:#000000;fill-opacity:1;fill-rule:evenodd;stroke:none"
         id="path2518" />
      <path
         d="M 729.24967,178.72842 L 743.43222,178.72842 L 743.43222,181.53827 L 732.58848,181.53827 L 732.58848,188.81257 L 742.3743,188.81257 L 742.3743,191.62242 L 732.58848,191.62242 L 732.58848,203.40771 L 729.24967,203.40771 L 729.24967,178.72842"
         style="fill:#000000;fill-opacity:1;fill-rule:nonzero;stroke:none"
         id="path2520" />
      <path
         d="M 752.09452,191.62242 L 752.09452,200.66345 L 757.44974,200.66345 C 759.24609,200.66345 760.57273,200.29529 761.43388,199.55686 C 762.3035,198.80573 762.73936,197.66529 762.73936,196.13341 C 762.73936,194.59096 762.3035,193.45686 761.43388,192.72901 C 760.57273,191.99058 759.24609,191.62242 757.44974,191.62242 L 752.09452,191.62242 M 752.09452,181.47268 L 752.09452,188.9099 L 757.03714,188.9099 C 758.66635,188.9099 759.87873,188.60733 760.67218,188.0022 C 761.4762,187.38437 761.88033,186.44705 761.88033,185.19235 C 761.88033,183.94611 761.4762,183.01514 760.67218,182.39731 C 759.87873,181.78159 758.66635,181.47268 757.03714,181.47268 L 752.09452,181.47268 M 748.75359,178.72842 L 757.2847,178.72842 C 759.83007,178.72842 761.79146,179.25738 763.16888,180.31531 C 764.5463,181.37323 765.23607,182.8776 765.23607,184.82842 C 765.23607,186.33702 764.88272,187.53883 764.17814,188.43171 C 763.47145,189.3246 762.43468,189.88107 761.06996,190.10112 C 762.71186,190.45447 763.98348,191.1929 764.88695,192.31642 C 765.801,193.42936 766.26014,194.8237 766.26014,196.49734 C 766.26014,198.70206 765.51113,200.40532 764.01099,201.605 C 762.51297,202.80681 760.38019,203.40771 757.61477,203.40771 L 748.75359,203.40771 L 748.75359,178.72842"
         style="fill:#000000;fill-opacity:1;fill-rule:nonzero;stroke:none"
         id="path2522" />
      <path
         d="M 770.29295,195.49019 L 779.20268,195.49019 L 779.20268,192.77926 L 770.29295,192.77926 L 770.29295,195.49019 z"
         style="fill:#000000;fill-opacity:1;fill-rule:nonzero;stroke:none"
         id="path2524" />
      <path
         d="M 792.4438,182.01857 L 785.66673,200.63171 L 799.2378,200.63171 L 792.4438,182.01857 M 781.13669,203.40771 L 790.55858,178.72842 L 794.34383,178.72842 L 803.75091,203.40771 L 781.13669,203.40771"
         style="fill:#000000;fill-opacity:1;fill-rule:nonzero;stroke:none"
         id="path2526" />
      <path
         d="M 314.12917,97.03646 L 306.12167,119.02896 L 322.15667,119.02896 L 314.12917,97.03646 M 300.76917,122.31021 L 311.90292,93.15021 L 316.37542,93.15021 L 327.48792,122.31021 L 300.76917,122.31021"
         style="fill:#000000;fill-opacity:1;fill-rule:nonzero;stroke:none"
         id="path2528" />
      <path
         d="M -8.120951,206.37271 L -6.324076,206.37271 L -6.324076,217.31021 L -8.120951,217.31021 L -8.120951,206.37271 M -8.120951,202.11521 L -6.324076,202.11521 L -6.324076,204.39021 L -8.120951,204.39021 L -8.120951,202.11521"
         style="fill:#000000;fill-opacity:1;fill-rule:nonzero;stroke:none"
         id="path2530" />
      <path
         d="M -2.339701,208.22771 L 10.179799,208.22771 L 10.179799,209.86896 L -2.339701,209.86896 L -2.339701,208.22771 M -2.339701,212.21271 L 10.179799,212.21271 L 10.179799,213.87271 L -2.339701,213.87271 L -2.339701,212.21271"
         style="fill:#000000;fill-opacity:1;fill-rule:nonzero;stroke:none"
         id="path2532" />
      <path
         d="M 14.779424,215.65021 L 18.002049,215.65021 L 18.002049,204.52646 L 14.496299,205.23021 L 14.496299,203.43271 L 17.982549,202.73021 L 19.955174,202.73021 L 19.955174,215.65021 L 23.177924,215.65021 L 23.177924,217.31021 L 14.779424,217.31021 L 14.779424,215.65021"
         style="fill:#000000;fill-opacity:1;fill-rule:nonzero;stroke:none"
         id="path2534" />
      <path
         d="M 1.879049,236.37271 L 3.675924,236.37271 L 3.675924,247.31021 L 1.879049,247.31021 L 1.879049,236.37271 M 1.879049,232.11521 L 3.675924,232.11521 L 3.675924,234.39021 L 1.879049,234.39021 L 1.879049,232.11521"
         style="fill:#000000;fill-opacity:1;fill-rule:nonzero;stroke:none"
         id="path2536" />
      <path
         d="M 7.660299,238.22771 L 20.179799,238.22771 L 20.179799,239.86896 L 7.660299,239.86896 L 7.660299,238.22771 M 7.660299,242.21271 L 20.179799,242.21271 L 20.179799,243.87271 L 7.660299,243.87271 L 7.660299,242.21271"
         style="fill:#000000;fill-opacity:1;fill-rule:nonzero;stroke:none"
         id="path2538" />
      <path
         d="M 26.136924,245.65021 L 33.021674,245.65021 L 33.021674,247.31021 L 23.763799,247.31021 L 23.763799,245.65021 C 24.512299,244.87521 25.531424,243.83646 26.820424,242.53521 C 28.115924,241.22646 28.929799,240.38271 29.261924,240.00521 C 29.893174,239.29646 30.332674,238.69646 30.580174,238.20896 C 30.834174,237.71396 30.961049,237.22896 30.961049,236.75396 C 30.961049,235.97896 30.687674,235.34771 30.140799,234.85896 C 29.600299,234.37021 28.893674,234.12646 28.021674,234.12646 C 27.402924,234.12646 26.748674,234.23396 26.058799,234.44896 C 25.375174,234.66396 24.642674,234.98896 23.861424,235.42521 L 23.861424,233.43271 C 24.655424,233.11396 25.397674,232.87271 26.088049,232.71021 C 26.777924,232.54771 27.409299,232.46646 27.982549,232.46646 C 29.492799,232.46646 30.697424,232.84396 31.595799,233.59896 C 32.494299,234.35521 32.943549,235.36396 32.943549,236.62646 C 32.943549,237.22521 32.829299,237.79521 32.601674,238.33521 C 32.380049,238.86896 31.973299,239.50146 31.381049,240.23021 C 31.217924,240.41896 30.700299,240.96646 29.828299,241.87021 C 28.955674,242.76896 27.725299,244.02896 26.136924,245.65021"
         style="fill:#000000;fill-opacity:1;fill-rule:nonzero;stroke:none"
         id="path2540" />
      <path
         d="M 12.341924,266.37271 L 14.138799,266.37271 L 14.138799,277.31021 L 12.341924,277.31021 L 12.341924,266.37271 M 12.341924,262.11521 L 14.138799,262.11521 L 14.138799,264.39021 L 12.341924,264.39021 L 12.341924,262.11521"
         style="fill:#000000;fill-opacity:1;fill-rule:nonzero;stroke:none"
         id="path2542" />
      <path
         d="M 18.123174,268.22771 L 30.642674,268.22771 L 30.642674,269.86896 L 18.123174,269.86896 L 18.123174,268.22771 M 18.123174,272.21271 L 30.642674,272.21271 L 30.642674,273.87271 L 18.123174,273.87271 L 18.123174,272.21271"
         style="fill:#000000;fill-opacity:1;fill-rule:nonzero;stroke:none"
         id="path2544" />
      <path
         d="M 40.877049,269.44896 C 41.820924,269.65021 42.556799,270.07021 43.084174,270.70896 C 43.617799,271.34646 43.884924,272.13396 43.884924,273.07146 C 43.884924,274.51146 43.389799,275.62396 42.400549,276.41146 C 41.410799,277.19896 40.004549,277.59396 38.181799,277.59396 C 37.569424,277.59396 36.938174,277.53146 36.287299,277.40771 C 35.642674,277.29021 34.975299,277.11146 34.285299,276.87021 L 34.285299,274.96646 C 34.832174,275.28521 35.430799,275.52646 36.082174,275.68896 C 36.733049,275.85146 37.413174,275.93271 38.123174,275.93271 C 39.360049,275.93271 40.300924,275.68896 40.945424,275.20021 C 41.596299,274.71271 41.922049,274.00271 41.922049,273.07146 C 41.922049,272.21271 41.619299,271.54271 41.013799,271.06021 C 40.414674,270.57146 39.578299,270.32771 38.504049,270.32771 L 36.804799,270.32771 L 36.804799,268.70646 L 38.582174,268.70646 C 39.551924,268.70646 40.294049,268.51521 40.808799,268.13021 C 41.322924,267.74021 41.580174,267.18021 41.580174,266.45021 C 41.580174,265.70271 41.313174,265.12896 40.779424,264.73271 C 40.252049,264.32771 39.493299,264.12646 38.504049,264.12646 C 37.963549,264.12646 37.383924,264.18521 36.765799,264.30271 C 36.147174,264.42021 35.466924,264.60146 34.724799,264.84896 L 34.724799,263.09146 C 35.473299,262.88271 36.173049,262.72646 36.824424,262.62271 C 37.481549,262.51896 38.100299,262.46646 38.679799,262.46646 C 40.176924,262.46646 41.361924,262.80771 42.234549,263.49146 C 43.106549,264.16896 43.543174,265.08646 43.543174,266.24521 C 43.543174,267.05271 43.311674,267.73646 42.849799,268.29646 C 42.387299,268.85021 41.729674,269.23396 40.877049,269.44896"
         style="fill:#000000;fill-opacity:1;fill-rule:nonzero;stroke:none"
         id="path2546" />
    </g>
  </g>
</svg>
